<svg xmlns="http://www.w3.org/2000/svg" xmlns:sketch="http://www.bohemiancoding.com/sketch/ns" xmlns:xlink="http://www.w3.org/1999/xlink" height="15" version="1.1" width="14"><rect id="backgroundrect" width="100%" height="100%" x="0" y="0" fill="none" stroke="none" class=""/><title/><desc/><defs/><g class="currentLayer"><title>Layer 1</title><g fill="none" fill-rule="evenodd" id="Page-1" stroke="none" stroke-width="1" class=""><g fill="#157EFB" id="icon-138-certificate"><path d="M5.388888903165533,10.698470590746107 L5.388888903165533,13.038038078053784 L13.169877687977037,13.038038078053784 C13.832891490968109,13.038038078053784 14.370370408441424,12.355413648001337 14.370370408441424,11.504069795950759 L14.370370408441424,1.5339682667641592 C14.370370408441424,0.68678098726947 13.833262126771563,0 13.169877687977037,0 L1.2004927144767312,0 C0.5374788935226957,0 0,0.682624437721883 0,1.5339682667641592 L0,11.504069795950759 C0,12.351257121462053 0.5371082996328241,13.038038078053784 1.2004927144767312,13.038038078053784 L2.3950617347402376,13.038038078053784 L2.3950617347402376,10.698470590746107 C2.0246693174626693,10.214323370718109 1.796296301055178,9.551246871156089 1.796296301055178,8.819849288095206 C1.796296301055178,7.3373501951921325 2.734563699590288,6.135547330848841 3.891975318952886,6.135547330848841 C5.049386926340173,6.135547330848841 5.987654336850595,7.3373501951921325 5.987654336850595,8.819849288095206 C5.987654336850595,9.551246871156089 5.7592813084677905,10.214323370718109 5.388888903165533,10.698470590746107 L5.388888903165533,10.698470590746107 L5.388888903165533,10.698470590746107 zM2.993827168425297,11.245832815089885 L2.993827168425297,15.0320722471603 L3.891975318952886,13.881680514400342 L4.790123469480474,15.0320722471603 L4.790123469480474,11.245832815089885 C4.517908117524733,11.411469584720312 4.213391825359961,11.504151245341573 3.891975318952886,11.504151245341573 C3.570558836496427,11.504151245341573 3.2660425084057283,11.411469584720312 2.993827168425297,11.245832815089885 L2.993827168425297,11.245832815089885 L2.993827168425297,11.245832815089885 zM1.796296301055178,3.834717081780526 L1.796296301055178,4.60166049813663 L12.574074107386243,4.60166049813663 L12.574074107386243,3.834717081780526 L1.796296301055178,3.834717081780526 L1.796296301055178,3.834717081780526 zM7.185185204220712,6.135547330848841 L7.185185204220712,6.902490747204947 L12.574074107386243,6.902490747204947 L12.574074107386243,6.135547330848841 L7.185185204220712,6.135547330848841 L7.185185204220712,6.135547330848841 zM8.981481505275887,8.436377579917155 L8.981481505275887,9.20332099627326 L12.574074107386243,9.20332099627326 L12.574074107386243,8.436377579917155 L8.981481505275887,8.436377579917155 L8.981481505275887,8.436377579917155 zM3.891975318952886,10.73720782898547 C4.718697878550506,10.73720782898547 5.388888903165533,9.87877718968474 5.388888903165533,8.819849288095206 C5.388888903165533,7.760921386505676 4.718697878550506,6.902490747204947 3.891975318952886,6.902490747204947 C3.0652527354046453,6.902490747204947 2.3950617347402376,7.760921386505676 2.3950617347402376,8.819849288095206 C2.3950617347402376,9.87877718968474 3.0652527354046453,10.73720782898547 3.891975318952886,10.73720782898547 L3.891975318952886,10.73720782898547 z" id="certificate"/></g></g></g></svg>